<?xml version="1.0" encoding="UTF-8"?>
<svg id="_图层_4" data-name="图层 4" xmlns="http://www.w3.org/2000/svg" viewBox="0 0 436.7 166.06">
  <defs>
    <style>
      .cls-1 {
        fill: #29abe2;
      }
    </style>
  </defs>
  <path class="cls-1" d="M298.08,104.56c17.05-2.52,30.11-17.22,30.11-34.96,0-20.25-17.02-36.54-37.57-35.29-17.42,1.06-31.69,15.11-33.02,32.52-1.48,19.43,12.75,35.83,31.32,37.88.8.08,1.41.73,1.41,1.55v4.95c-1.55.84-2.59,2.48-2.59,4.38v18.8c0,2.77,2.25,5.02,5,5.02h1.98c2.77,0,5.02-2.25,5.02-5.02v-18.8c0-2.06-1.25-3.81-3.02-4.58v-4.92c0-.78.58-1.42,1.36-1.53ZM292.84,99.27c-17.52,0-31.49-15.19-29.47-33.12,1.55-13.6,12.55-24.55,26.16-26.02,17.88-1.94,32.99,11.99,32.99,29.47,0,16.38-13.28,29.66-29.68,29.66Z"/>
  <path class="cls-1" d="M250.37,17.22v.14c-1.06-.09-2.16-.14-3.25-.14h3.25Z"/>
  <path class="cls-1" d="M281.31,112.01c-2.47-3.77-5.58-7.09-9.22-9.85-1.63-1.25-3.34-2.36-5.14-3.34-4.78-2.61-10.16-4.33-15.88-4.92-.41-.03-.7-.36-.7-.75V25.55c0-.92.8-1.66,1.72-1.56,8.91,1,17.01,4.75,23.41,10.35.23.2.55.24.82.11.95-.47,1.94-.88,2.95-1.25.52-.19.7-.83.33-1.25-7.24-8.27-17.6-13.74-29.24-14.58-1.06-.09-2.16-.14-3.25-.14h-.23c-1.69,0-3.06,1.37-3.06,3.06v10.1c-2.16-.86-4.44-1.45-6.81-1.77-1.23-.17-2.5-.25-3.78-.25-.78,0-1.55.03-2.31.09-.82.07-1.46.74-1.46,1.56v83.36h.83c2.2-.38,4.45-.66,6.72-.83,1.67-.11,3.34-.17,5.05-.17,13.93,0,26.85,4.1,37.43,11.08.84.55,1.95-.02,1.95-1.03v-9.99c-.04-.15-.09-.29-.13-.44ZM241.6,106.42c-1.27,0-2.53.03-3.78.1-.45.03-.82-.32-.82-.77V36.66c0-.48.44-.86.91-.78,2.05.34,4.02.88,5.9,1.63v61.23c0,1.39,1.11,2.55,2.52,2.55,3.58,0,7.05.44,10.38,1.28,3.14.78,6.14,1.92,8.94,3.38h.02c4.18,2.14,7.93,4.98,11.07,8.35.62.66-.2,1.66-.99,1.21-9.92-5.75-21.62-9.07-34.16-9.07Z"/>
  <path class="cls-1" d="M272.46,101.89c-.13.09-.25.19-.38.27"/>
  <path class="cls-1" d="M233.22,28.36c-1.28,0-2.53.08-3.77.25v-.25"/>
  <path class="cls-1" d="M237.01,112.55c-2.27.17-4.52.45-6.72.83"/>
  <path class="cls-1" d="M304.27,112.92v9.99c0,1.01,1.12,1.58,1.95,1.03,10.58-6.98,23.5-11.08,37.43-11.08,1.7,0,3.38.06,5.05.17,2.27.17,4.52.45,6.72.83h.83s0-83.36,0-83.36c0-.82-.64-1.5-1.46-1.56-.76-.06-1.53-.09-2.31-.09-1.28,0-2.55.08-3.78.25-2.38.31-4.66.91-6.81,1.77v-10.1c0-1.69-1.37-3.06-3.06-3.06h-.23c-1.09,0-2.19.05-3.25.14-11.64.84-22,6.31-29.24,14.58-.38.42-.19,1.06.33,1.25,1.02.38,2,.78,2.95,1.25.27.13.59.09.82-.11,6.41-5.6,14.5-9.35,23.41-10.35.92-.09,1.72.64,1.72,1.56v67.59c0,.39-.3.72-.7.75-5.72.59-11.1,2.31-15.88,4.92-1.8.98-3.52,2.09-5.14,3.34-3.63,2.75-6.74,6.07-9.22,9.85l-.13.44ZM309.95,115.97c-.78.45-1.6-.54-.99-1.21,3.15-3.37,6.89-6.2,11.07-8.35h.02c2.8-1.45,5.8-2.59,8.94-3.38,3.33-.84,6.8-1.28,10.38-1.28,1.41,0,2.52-1.16,2.52-2.55v-61.23c1.88-.75,3.85-1.3,5.9-1.63.48-.08.91.3.91.78v69.1c0,.45-.37.8-.82.77-1.25-.07-2.51-.1-3.78-.1-12.54,0-24.23,3.32-34.16,9.07Z"/>
</svg>